<svg width="205" height="260" viewBox="0 0 205 260" fill="none" xmlns="http://www.w3.org/2000/svg">
<path d="M197.897 410.632C193.41 348.625 193.738 339.631 202.428 286.419C208.473 249.404 203.564 198.391 190.841 165.987C181.793 142.944 151.333 85.3486 148.185 85.3314C144.655 85.3146 144.716 88.4275 148.488 100.86C153.742 118.179 154.785 140.842 151.815 173.154C146.545 230.509 148.213 246.538 164.549 295.502C169.909 311.567 174.279 326.056 174.26 327.701C174.218 331.717 150.601 287.485 143.849 270.735C140.894 263.407 134.094 240.924 128.736 220.772C104.292 128.835 79.8751 79.0287 35.1142 29.8013C11.72 4.07287 6.97768 2.96428 18.643 25.9508C25.0406 38.5573 35.5814 70.6597 49.8018 120.846C53.8168 135.016 61.8429 155.773 67.8328 167.478L78.6279 188.574L58.8508 167.478C43.9446 151.578 38.17 143.648 35.4043 135.279C18.3681 83.7323 -34.7289 48.5092 -141.913 17.6511C-157.566 13.1447 -175.882 7.02299 -182.615 4.04725C-194.921 -1.39203 -199 -1.35507 -199 4.19641C-199 7.81404 -174.701 29.6902 -145.16 52.6672C-120.802 71.6128 -93.4073 86.9206 -38.5135 112.26C6.95795 133.249 25.6862 145.223 47.6407 167.342C64.9901 184.822 85.4146 208.079 85.4146 210.354C85.4146 211.077 78.3834 206.383 69.7896 199.923C38.6764 176.531 9.55225 163.888 -48.9188 148.391C-65.9748 143.87 -88.1281 136.955 -98.1481 133.023C-109.999 128.374 -117.41 126.564 -119.354 127.844C-121.659 129.363 -120.828 130.944 -115.716 134.766C-112.072 137.491 -94.0737 152.586 -75.72 168.31C-29.2944 208.084 -18.8882 214.355 33.198 233.949C56.1083 242.568 66.5938 245.585 87.6365 249.612C94.358 250.898 104.99 254.328 111.262 257.234C121.671 262.057 123.794 264.427 135.579 284.391C165.507 335.087 178.278 363.325 188.658 401.75C196.504 430.794 199.57 433.741 197.898 410.633L197.897 410.632Z" fill="#F3F5F8"/>
</svg>
