<svg width="199" height="260" viewBox="0 0 199 260" fill="none" xmlns="http://www.w3.org/2000/svg">
<path d="M7.10255 410.632C11.5903 348.625 11.2623 339.631 2.57219 286.419C-3.47257 249.404 1.43556 198.391 14.1593 165.987C23.2074 142.944 53.6671 85.3486 56.8145 85.3314C60.3448 85.3146 60.2841 88.4275 56.5121 100.86C51.2584 118.179 50.2153 140.842 53.1847 173.154C58.4554 230.509 56.7871 246.538 40.4508 295.502C35.0911 311.567 30.7211 326.056 30.7395 327.701C30.7815 331.717 54.3986 287.485 61.1514 270.735C64.1056 263.407 70.9063 240.924 76.2642 220.772C100.708 128.835 125.125 79.0287 169.886 29.8013C193.28 4.07287 198.022 2.96428 186.357 25.9508C179.959 38.5573 169.419 70.6597 155.198 120.846C151.183 135.016 143.157 155.773 137.167 167.478L126.372 188.574L146.149 167.478C161.055 151.578 166.83 143.648 169.596 135.279C186.632 83.7323 239.729 48.5092 346.913 17.6511C362.566 13.1447 380.882 7.02299 387.615 4.04725C399.921 -1.39203 404 -1.35507 404 4.19641C404 7.81404 379.701 29.6902 350.16 52.6672C325.802 71.6128 298.407 86.9206 243.513 112.26C198.042 133.249 179.314 145.223 157.359 167.342C140.01 184.822 119.585 208.079 119.585 210.354C119.585 211.077 126.617 206.383 135.21 199.923C166.324 176.531 195.448 163.888 253.919 148.391C270.975 143.87 293.128 136.955 303.148 133.023C314.999 128.374 322.41 126.564 324.354 127.844C326.659 129.363 325.828 130.944 320.716 134.766C317.072 137.491 299.074 152.586 280.72 168.31C234.294 208.084 223.888 214.355 171.802 233.949C148.892 242.568 138.406 245.585 117.363 249.612C110.642 250.898 100.01 254.328 93.738 257.234C83.3288 262.057 81.2064 264.427 69.4207 284.391C39.4933 335.087 26.7219 363.325 16.3417 401.75C8.49584 430.794 5.42987 433.741 7.10234 410.633L7.10255 410.632Z" fill="#F3F5F8"/>
</svg>
